<svg width="111" height="111" viewBox="0 0 111 111" fill="none" xmlns="http://www.w3.org/2000/svg">
<rect x="0.154556" y="0.629608" width="110" height="110" rx="55" fill="#FDDE67"/>
<path d="M44.8333 42.7234V45.5925H31.5159L31.3382 43.3708L39.0442 31.1452H41.9514L38.803 36.4138L34.969 42.7234H44.8333ZM42.7385 31.1452V49.6296H39.0823V31.1452H42.7385ZM59.2551 38.7624V41.9616C59.2551 43.3497 59.107 44.5473 58.8108 45.5544C58.5146 46.5531 58.0872 47.3741 57.5286 48.0173C56.9784 48.6521 56.3225 49.1218 55.5608 49.4265C54.7991 49.7312 53.9527 49.8835 53.0217 49.8835C52.277 49.8835 51.5829 49.7904 50.9397 49.6042C50.2965 49.4096 49.7167 49.1091 49.2005 48.7029C48.6926 48.2966 48.2525 47.7846 47.8801 47.1667C47.5162 46.5404 47.2369 45.7956 47.0423 44.9323C46.8476 44.0691 46.7503 43.0788 46.7503 41.9616V38.7624C46.7503 37.3744 46.8984 36.1853 47.1946 35.195C47.4993 34.1963 47.9267 33.3796 48.4768 32.7448C49.0354 32.1101 49.6956 31.6446 50.4573 31.3484C51.219 31.0437 52.0654 30.8913 52.9964 30.8913C53.7411 30.8913 54.4309 30.9887 55.0657 31.1833C55.7089 31.3695 56.2887 31.6615 56.8049 32.0593C57.3212 32.4571 57.7613 32.9691 58.1253 33.5954C58.4892 34.2133 58.7685 34.9538 58.9632 35.8171C59.1578 36.6719 59.2551 37.6537 59.2551 38.7624ZM55.5862 42.4441V38.2673C55.5862 37.5987 55.5481 37.0147 55.4719 36.5154C55.4042 36.016 55.2984 35.5928 55.1546 35.2458C55.0107 34.8904 54.8329 34.6026 54.6214 34.3825C54.4098 34.1625 54.1686 34.0017 53.8977 33.9001C53.6269 33.7986 53.3264 33.7478 52.9964 33.7478C52.5816 33.7478 52.2135 33.8282 51.8919 33.989C51.5787 34.1498 51.3121 34.4079 51.0921 34.7634C50.872 35.1104 50.7027 35.5759 50.5842 36.1599C50.4742 36.7354 50.4192 37.4379 50.4192 38.2673V42.4441C50.4192 43.1127 50.4531 43.7009 50.5208 44.2087C50.5969 44.7165 50.707 45.1524 50.8508 45.5163C51.0032 45.8718 51.1809 46.1638 51.384 46.3923C51.5956 46.6124 51.8368 46.7732 52.1077 46.8747C52.387 46.9763 52.6917 47.0271 53.0217 47.0271C53.428 47.0271 53.7877 46.9467 54.1008 46.7859C54.4225 46.6166 54.6933 46.3542 54.9133 45.9987C55.1419 45.6348 55.3111 45.1609 55.4212 44.5769C55.5312 43.9929 55.5862 43.282 55.5862 42.4441ZM61.6926 35.6775V34.6999C61.6926 33.9974 61.845 33.3584 62.1497 32.7829C62.4544 32.2074 62.9029 31.7461 63.4954 31.3991C64.0878 31.0521 64.8157 30.8786 65.679 30.8786C66.5676 30.8786 67.3082 31.0521 67.9007 31.3991C68.5016 31.7461 68.9501 32.2074 69.2464 32.7829C69.551 33.3584 69.7034 33.9974 69.7034 34.6999V35.6775C69.7034 36.363 69.551 36.9935 69.2464 37.5691C68.9501 38.1446 68.5058 38.6058 67.9133 38.9529C67.3209 39.2999 66.5888 39.4734 65.7171 39.4734C64.8368 39.4734 64.0963 39.2999 63.4954 38.9529C62.9029 38.6058 62.4544 38.1446 62.1497 37.5691C61.845 36.9935 61.6926 36.363 61.6926 35.6775ZM64.1174 34.6999V35.6775C64.1174 35.9737 64.1725 36.2572 64.2825 36.528C64.401 36.7904 64.5787 37.0062 64.8157 37.1755C65.0611 37.3363 65.3574 37.4167 65.7044 37.4167C66.0683 37.4167 66.3645 37.3363 66.593 37.1755C66.8215 37.0062 66.9908 36.7904 67.1008 36.528C67.2109 36.2572 67.2659 35.9737 67.2659 35.6775V34.6999C67.2659 34.3868 67.2066 34.099 67.0882 33.8366C66.9781 33.5658 66.8046 33.35 66.5676 33.1892C66.3391 33.0199 66.0429 32.9353 65.679 32.9353C65.3404 32.9353 65.0527 33.0199 64.8157 33.1892C64.5787 33.35 64.401 33.5658 64.2825 33.8366C64.1725 34.099 64.1174 34.3868 64.1174 34.6999ZM70.5286 46.0749V45.0974C70.5286 44.4034 70.6809 43.7686 70.9856 43.1931C71.2988 42.6176 71.7516 42.1563 72.344 41.8093C72.9449 41.4623 73.6812 41.2888 74.553 41.2888C75.4332 41.2888 76.1695 41.4623 76.762 41.8093C77.3544 42.1563 77.803 42.6176 78.1077 43.1931C78.4124 43.7686 78.5647 44.4034 78.5647 45.0974V46.0749C78.5647 46.7689 78.4124 47.4037 78.1077 47.9792C77.8115 48.5547 77.3671 49.016 76.7747 49.363C76.1822 49.71 75.4501 49.8835 74.5784 49.8835C73.6982 49.8835 72.9576 49.71 72.3567 49.363C71.7558 49.016 71.2988 48.5547 70.9856 47.9792C70.6809 47.4037 70.5286 46.7689 70.5286 46.0749ZM72.9661 45.0974V46.0749C72.9661 46.3796 73.0338 46.6674 73.1692 46.9382C73.3046 47.209 73.4908 47.4249 73.7278 47.5857C73.9732 47.7465 74.2568 47.8269 74.5784 47.8269C74.9846 47.8269 75.302 47.7465 75.5305 47.5857C75.759 47.4249 75.9156 47.209 76.0003 46.9382C76.0934 46.6674 76.1399 46.3796 76.1399 46.0749V45.0974C76.1399 44.7927 76.0807 44.5092 75.9622 44.2468C75.8437 43.976 75.6659 43.7601 75.429 43.5993C75.2005 43.4301 74.9085 43.3454 74.553 43.3454C74.1975 43.3454 73.9013 43.4301 73.6643 43.5993C73.4358 43.7601 73.2623 43.976 73.1438 44.2468C73.0253 44.5092 72.9661 44.7927 72.9661 45.0974ZM75.4544 33.7859L66.428 48.2331L64.6507 47.2937L73.677 32.8464L75.4544 33.7859ZM48.7561 69.9558V70.8318C48.7561 72.2367 48.5657 73.4978 48.1848 74.615C47.804 75.7321 47.2665 76.6843 46.5725 77.4714C45.8785 78.2501 45.0491 78.8467 44.0842 79.2614C43.1279 79.6762 42.0657 79.8835 40.8977 79.8835C39.7382 79.8835 38.676 79.6762 37.7112 79.2614C36.7548 78.8467 35.9254 78.2501 35.2229 77.4714C34.5204 76.6843 33.9745 75.7321 33.5852 74.615C33.2044 73.4978 33.0139 72.2367 33.0139 70.8318V69.9558C33.0139 68.5424 33.2044 67.2813 33.5852 66.1726C33.9661 65.0554 34.5035 64.1032 35.1975 63.3161C35.9 62.529 36.7294 61.9281 37.6858 61.5134C38.6507 61.0987 39.7128 60.8913 40.8723 60.8913C42.0403 60.8913 43.1025 61.0987 44.0589 61.5134C45.0237 61.9281 45.8531 62.529 46.5471 63.3161C47.2496 64.1032 47.7913 65.0554 48.1721 66.1726C48.5615 67.2813 48.7561 68.5424 48.7561 69.9558ZM44.9094 70.8318V69.9304C44.9094 68.9486 44.8206 68.0853 44.6428 67.3405C44.4651 66.5958 44.2027 65.9695 43.8557 65.4616C43.5087 64.9538 43.0855 64.573 42.5862 64.3191C42.0868 64.0567 41.5156 63.9255 40.8723 63.9255C40.2291 63.9255 39.6578 64.0567 39.1585 64.3191C38.6676 64.573 38.2486 64.9538 37.9016 65.4616C37.5631 65.9695 37.3049 66.5958 37.1272 67.3405C36.9495 68.0853 36.8606 68.9486 36.8606 69.9304V70.8318C36.8606 71.8051 36.9495 72.6683 37.1272 73.4216C37.3049 74.1664 37.5673 74.7969 37.9143 75.3132C38.2613 75.821 38.6845 76.2061 39.1839 76.4685C39.6832 76.7308 40.2545 76.862 40.8977 76.862C41.5409 76.862 42.1122 76.7308 42.6116 76.4685C43.1109 76.2061 43.5299 75.821 43.8684 75.3132C44.207 74.7969 44.4651 74.1664 44.6428 73.4216C44.8206 72.6683 44.9094 71.8051 44.9094 70.8318ZM55.3069 61.1452V79.6296H51.4983V61.1452H55.3069ZM62.6702 69.0417V72.0124H54.2659V69.0417H62.6702ZM63.5589 61.1452V64.1286H54.2659V61.1452H63.5589ZM69.5764 61.1452V79.6296H65.7678V61.1452H69.5764ZM76.9397 69.0417V72.0124H68.5354V69.0417H76.9397ZM77.8284 61.1452V64.1286H68.5354V61.1452H77.8284Z" fill="#181818"/>
</svg>
