<svg width="42" height="10" viewBox="0 0 42 10" fill="none" xmlns="http://www.w3.org/2000/svg">
<g clip-path="url(#clip0_37_883)">
<path d="M5.93421 9.70768H7.64552V2.5621H5.93421V3.14542C4.31666 1.97879 2.11305 2.39197 0.987801 4.06899C-0.137447 5.74602 0.261078 8.03065 1.87862 9.19728C3.09764 10.0722 4.71519 10.0722 5.93421 9.19728V9.70768ZM2.01928 6.15919C2.01928 5.04118 2.9101 4.1176 3.98846 4.1176C5.06683 4.1176 5.95765 5.04118 5.95765 6.15919C5.95765 7.27721 5.06683 8.20079 3.98846 8.20079C2.9101 8.20079 2.01928 7.30151 2.01928 6.15919ZM13.9282 0.131638V3.14542C12.3106 1.97879 10.107 2.41628 8.98175 4.06899C7.8565 5.72171 8.27847 8.03065 9.87257 9.19728C11.0916 10.0722 12.7091 10.0722 13.9282 9.19728V9.70768H15.6395V0.131638L13.9282 0.131638ZM10.0132 6.15919C10.0132 5.04118 10.9041 4.1176 11.9824 4.1176C13.0608 4.1176 13.9516 5.04118 13.9516 6.15919C13.9516 7.27721 13.0608 8.20079 11.9824 8.20079C10.9041 8.20079 10.0132 7.30151 10.0132 6.15919ZM18.1947 0.131638H16.4834V1.90588H18.1947V0.131638ZM18.1947 2.5621H16.4834V9.70768H18.1947V2.5621ZM24.4774 0.131638V3.14542C22.8598 1.97879 20.6562 2.39197 19.531 4.06899C18.4057 5.74602 18.8042 8.03065 20.4218 9.19728C21.6408 10.0722 23.2583 10.0722 24.4774 9.19728V9.70768H26.1887V0.131638L24.4774 0.131638ZM20.5624 6.15919C20.5624 5.04118 21.4533 4.1176 22.5316 4.1176C23.61 4.1176 24.5008 5.04118 24.5008 6.15919C24.5008 7.27721 23.61 8.20079 22.5316 8.20079C21.4533 8.20079 20.5624 7.30151 20.5624 6.15919ZM32.4948 9.70768H34.2061V2.5621H32.4948V3.14542C30.8772 1.97879 28.6736 2.39197 27.5484 4.06899C26.4231 5.74602 26.8216 8.03065 28.4392 9.19728C29.6582 10.0722 31.2757 10.0722 32.4948 9.19728V9.70768ZM28.5798 6.15919C28.5798 5.04118 29.4707 4.1176 30.549 4.1176C31.6274 4.1176 32.5182 5.04118 32.5182 6.15919C32.5182 7.27721 31.6274 8.20079 30.549 8.20079C29.4472 8.20079 28.5798 7.30151 28.5798 6.15919ZM34.839 7.37443C34.8859 8.8084 36.0815 9.8292 38.0507 9.8292C39.6682 9.8292 41.0044 9.10006 41.0044 7.49595C41.0044 6.37794 40.3949 5.72171 38.9884 5.45436L37.8866 5.23562C37.1833 5.08979 36.691 4.96827 36.691 4.53078C36.691 4.04469 37.1599 3.85025 37.7459 3.85025C38.6133 3.85025 38.9649 4.28774 38.9884 4.82244H40.7231C40.6294 3.41277 39.551 2.48919 37.8162 2.48919C36.0346 2.48919 34.9562 3.50999 34.9562 4.84674C34.9562 6.47516 36.2221 6.74251 37.3239 6.93694L38.2382 7.10708C38.8946 7.2286 39.1759 7.42304 39.1759 7.81191C39.1759 8.15218 38.8477 8.51675 38.0741 8.51675C36.9489 8.51675 36.5972 7.90913 36.5738 7.39873L34.839 7.37443Z" fill="white"/>
</g>
<defs>
<clipPath id="clip0_37_883">
<rect width="41.2821" height="10" fill="white" transform="translate(0.000244141)"/>
</clipPath>
</defs>
</svg>
