<svg width="37" height="10" viewBox="0 0 37 10" fill="none" xmlns="http://www.w3.org/2000/svg">
<path d="M34.9827 0.488968H31.5929L27.6224 4.5032L31.0707 4.50262L34.9827 0.489114V0.488968Z" fill="white"/>
<path d="M24.3335 7.59759V7.62459V7.82558V9.4369H24.608C24.9749 9.4369 25.3248 9.40803 25.6616 9.34841C25.9961 9.28841 26.293 9.19316 26.5494 9.06154C26.8047 8.93067 27.0093 8.75518 27.1635 8.53468C27.3154 8.31457 27.3919 8.04383 27.3919 7.72209V5.33979V4.43232V0.488952H24.3335V7.59759Z" fill="white"/>
<path d="M31.0705 5.23884H27.6222L31.4554 8.54398C32.5309 9.43945 33.6233 9.43683 34.0016 9.43683H36.346L31.0705 5.23884Z" fill="white"/>
<path d="M9.79905 3.69828H4.47049C4.37975 3.69828 4.30477 3.62516 4.30477 3.53666V2.95168C4.30477 2.86243 4.37975 2.79081 4.47049 2.79081H9.79905C10.2293 2.79081 10.5785 2.9933 10.5785 3.24417C10.5785 3.49429 10.2293 3.69828 9.79905 3.69828ZM9.79905 7.23291H4.47049C4.37975 7.23291 4.30477 7.16091 4.30477 7.07204V6.48669C4.30477 6.39744 4.37975 6.32544 4.47049 6.32544H9.79905C10.2293 6.32544 10.5785 6.52906 10.5785 6.77918C10.5785 7.03004 10.2293 7.23291 9.79905 7.23291ZM11.2348 4.41038L11.2194 4.41C12.3657 4.28963 13.2539 3.46166 13.2539 2.45669C13.2539 1.36998 12.2138 0.489135 10.9322 0.489135L10.7038 0.491759C10.6511 0.490635 10.6004 0.489135 10.5462 0.489135H1.27905V9.43709H10.5281C10.6334 9.43709 10.7373 9.43446 10.8403 9.42921L10.9595 9.43259C12.5994 9.43259 13.9283 8.30575 13.9283 6.91567C13.9283 5.60584 12.7459 4.52813 11.2348 4.41038Z" fill="white"/>
<path d="M17.4368 2.34759C17.4368 1.74011 17.1853 1.2755 16.6846 0.954515C16.1836 0.63315 15.5061 0.471906 14.6514 0.471906H14.3772L14.3857 7.74104C14.4091 7.98666 14.4791 8.20152 14.5975 8.38414C14.7433 8.61026 14.9455 8.80113 15.2008 8.956C15.4581 9.11162 15.7572 9.22712 16.0987 9.30436C16.4409 9.38199 16.8065 9.42061 17.1976 9.42061H20.9708C21.3611 9.42061 21.7252 9.38461 22.0609 9.31336C22.3962 9.24099 22.6892 9.13487 22.9391 8.99162C23.1894 8.84875 23.3928 8.65863 23.552 8.42014C23.6443 8.28177 23.8281 7.86366 23.8281 7.60829V7.32143H17.4368V2.34759Z" fill="white"/>
</svg>
