<svg width="40" height="40" viewBox="0 0 40 40" fill="none" xmlns="http://www.w3.org/2000/svg">
<rect y="-6.10352e-05" width="40" height="40" rx="20" fill="#FDDE67"/>
<g clip-path="url(#clip0_20_103)">
<path d="M27.142 14.7179C26.9545 14.4929 26.7197 14.3119 26.4544 14.1878C26.189 14.0637 25.8996 13.9996 25.6067 13.9999H14.828L14.8 13.7659C14.7427 13.2796 14.5089 12.8311 14.143 12.5056C13.7771 12.1801 13.3044 12.0002 12.8147 11.9999H12.6667C12.4899 11.9999 12.3203 12.0702 12.1953 12.1952C12.0702 12.3202 12 12.4898 12 12.6666C12 12.8434 12.0702 13.013 12.1953 13.138C12.3203 13.263 12.4899 13.3333 12.6667 13.3333H12.8147C12.978 13.3333 13.1356 13.3932 13.2576 13.5017C13.3796 13.6103 13.4576 13.7598 13.4767 13.9219L14.394 21.7219C14.4892 22.5331 14.879 23.2811 15.4893 23.8239C16.0996 24.3668 16.8879 24.6666 17.7047 24.6666H24.6667C24.8435 24.6666 25.013 24.5964 25.1381 24.4713C25.2631 24.3463 25.3333 24.1768 25.3333 23.9999C25.3333 23.8231 25.2631 23.6536 25.1381 23.5285C25.013 23.4035 24.8435 23.3333 24.6667 23.3333H17.7047C17.292 23.3321 16.8899 23.2034 16.5533 22.9646C16.2167 22.7259 15.9622 22.389 15.8247 21.9999H23.7713C24.5529 22 25.3096 21.7254 25.9092 21.2242C26.5089 20.723 26.9134 20.0271 27.052 19.2579L27.5753 16.3553C27.6276 16.0673 27.6158 15.7713 27.5409 15.4884C27.4661 15.2054 27.3299 14.9424 27.142 14.7179ZM26.2667 16.1186L25.7427 19.0213C25.6594 19.4833 25.4163 19.9013 25.0559 20.2021C24.6955 20.5029 24.2408 20.6673 23.7713 20.6666H15.6127L14.9853 15.3333H25.6067C25.7046 15.3327 25.8015 15.3537 25.8904 15.3948C25.9793 15.4359 26.058 15.496 26.121 15.571C26.184 15.646 26.2297 15.7339 26.2549 15.8286C26.2801 15.9232 26.2841 16.0222 26.2667 16.1186Z" fill="#181818"/>
<path d="M16.6668 28.0004C17.4031 28.0004 18.0001 27.4034 18.0001 26.667C18.0001 25.9307 17.4031 25.3337 16.6668 25.3337C15.9304 25.3337 15.3334 25.9307 15.3334 26.667C15.3334 27.4034 15.9304 28.0004 16.6668 28.0004Z" fill="#181818"/>
<path d="M23.3333 28.0004C24.0697 28.0004 24.6667 27.4034 24.6667 26.667C24.6667 25.9307 24.0697 25.3337 23.3333 25.3337C22.597 25.3337 22 25.9307 22 26.667C22 27.4034 22.597 28.0004 23.3333 28.0004Z" fill="#181818"/>
</g>
<defs>
<clipPath id="clip0_20_103">
<rect width="16" height="16" fill="white" transform="translate(12 11.9999)"/>
</clipPath>
</defs>
</svg>
