<svg width="40" height="41" viewBox="0 0 40 41" fill="none" xmlns="http://www.w3.org/2000/svg">
<rect y="0.013916" width="40" height="40" rx="6" fill="#FDDE67"/>
<g clip-path="url(#clip0_2588_71)">
<path d="M28.0347 14.0717C27.8238 13.8185 27.5597 13.6149 27.2612 13.4753C26.9626 13.3357 26.637 13.2635 26.3075 13.2639H14.1815L14.15 13.0007C14.0855 12.4535 13.8225 11.949 13.4109 11.5828C12.9992 11.2166 12.4675 11.0142 11.9165 11.0139H11.75C11.5511 11.0139 11.3603 11.0929 11.2197 11.2336C11.079 11.3742 11 11.565 11 11.7639C11 11.9628 11.079 12.1536 11.2197 12.2942C11.3603 12.4349 11.5511 12.5139 11.75 12.5139H11.9165C12.1002 12.5139 12.2775 12.5814 12.4148 12.7035C12.5521 12.8255 12.6398 12.9937 12.6612 13.1762L13.6933 21.9512C13.8004 22.8638 14.2389 23.7053 14.9254 24.3159C15.612 24.9266 16.4989 25.2639 17.4178 25.2639H25.25C25.4489 25.2639 25.6397 25.1849 25.7803 25.0442C25.921 24.9036 26 24.7128 26 24.5139C26 24.315 25.921 24.1242 25.7803 23.9836C25.6397 23.8429 25.4489 23.7639 25.25 23.7639H17.4178C16.9535 23.7626 16.5011 23.6178 16.1225 23.3492C15.7438 23.0807 15.4575 22.7016 15.3028 22.2639H24.2428C25.122 22.264 25.9733 21.9551 26.6479 21.3912C27.3225 20.8274 27.7775 20.0444 27.9335 19.1792L28.5223 15.9137C28.581 15.5897 28.5678 15.2567 28.4836 14.9384C28.3993 14.6201 28.2461 14.3242 28.0347 14.0717ZM27.05 15.6474L26.4605 18.9129C26.3668 19.4327 26.0934 19.9029 25.6879 20.2413C25.2824 20.5797 24.7709 20.7647 24.2428 20.7639H15.0642L14.3585 14.7639H26.3075C26.4177 14.7633 26.5266 14.7869 26.6267 14.8331C26.7267 14.8793 26.8153 14.947 26.8861 15.0314C26.957 15.1157 27.0085 15.2146 27.0368 15.3211C27.0651 15.4276 27.0696 15.539 27.05 15.6474Z" fill="#181818"/>
<path d="M16.2501 29.0144C17.0785 29.0144 17.7501 28.3428 17.7501 27.5144C17.7501 26.686 17.0785 26.0144 16.2501 26.0144C15.4217 26.0144 14.7501 26.686 14.7501 27.5144C14.7501 28.3428 15.4217 29.0144 16.2501 29.0144Z" fill="#181818"/>
<path d="M23.75 29.0144C24.5784 29.0144 25.25 28.3428 25.25 27.5144C25.25 26.686 24.5784 26.0144 23.75 26.0144C22.9216 26.0144 22.25 26.686 22.25 27.5144C22.25 28.3428 22.9216 29.0144 23.75 29.0144Z" fill="#181818"/>
</g>
<defs>
<clipPath id="clip0_2588_71">
<rect width="18" height="18" fill="white" transform="translate(11 11.0139)"/>
</clipPath>
</defs>
</svg>
