<svg width="25" height="23" viewBox="0 0 25 23" fill="none" xmlns="http://www.w3.org/2000/svg">
<path d="M17.75 0.93042C16.6239 0.947935 15.5224 1.26227 14.5567 1.84169C13.591 2.42111 12.7953 3.24509 12.25 4.23042C11.7046 3.24509 10.9089 2.42111 9.9432 1.84169C8.9775 1.26227 7.87601 0.947935 6.74996 0.93042C4.9549 1.00841 3.26366 1.79367 2.04574 3.11465C0.827818 4.43563 0.182208 6.18495 0.249958 7.98042C0.249958 12.5274 5.03596 17.4934 9.04996 20.8604C9.94618 21.6136 11.0793 22.0264 12.25 22.0264C13.4206 22.0264 14.5537 21.6136 15.45 20.8604C19.464 17.4934 24.25 12.5274 24.25 7.98042C24.3177 6.18495 23.6721 4.43563 22.4542 3.11465C21.2363 1.79367 19.545 1.00841 17.75 0.93042ZM14.165 19.3304C13.6289 19.7818 12.9507 20.0293 12.25 20.0293C11.5492 20.0293 10.871 19.7818 10.335 19.3304C5.19696 15.0194 2.24996 10.8834 2.24996 7.98042C2.1816 6.71514 2.61632 5.47415 3.45932 4.52812C4.30232 3.58209 5.48519 3.00777 6.74996 2.93042C8.01472 3.00777 9.1976 3.58209 10.0406 4.52812C10.8836 5.47415 11.3183 6.71514 11.25 7.98042C11.25 8.24564 11.3553 8.49999 11.5429 8.68753C11.7304 8.87506 11.9847 8.98042 12.25 8.98042C12.5152 8.98042 12.7695 8.87506 12.9571 8.68753C13.1446 8.49999 13.25 8.24564 13.25 7.98042C13.1816 6.71514 13.6163 5.47415 14.4593 4.52812C15.3023 3.58209 16.4852 3.00777 17.75 2.93042C19.0147 3.00777 20.1976 3.58209 21.0406 4.52812C21.8836 5.47415 22.3183 6.71514 22.25 7.98042C22.25 10.8834 19.303 15.0194 14.165 19.3264V19.3304Z" fill="#181818"/>
</svg>
