<svg width="43" height="10" viewBox="0 0 43 10" fill="none" xmlns="http://www.w3.org/2000/svg">
<path d="M37.6612 3.1983L37.586 3.22306C37.2936 2.59349 36.8758 2.09232 36.3327 1.71955C35.798 1.34679 35.1254 1.16041 34.315 1.16041C33.8638 1.16041 33.4336 1.25566 33.0242 1.44618C32.6148 1.62843 32.2555 1.88937 31.9464 2.229C31.6456 2.56035 31.4033 2.96211 31.2195 3.43429C31.0357 3.90646 30.9438 4.42833 30.9438 4.99991C30.9438 5.57149 31.0357 6.09336 31.2195 6.56554C31.4033 7.03771 31.6456 7.44361 31.9464 7.78324C32.2555 8.11459 32.6148 8.37139 33.0242 8.55364C33.4336 8.73587 33.8638 8.82699 34.315 8.82699C35.1171 8.82699 35.7688 8.70273 36.2701 8.45422C36.7797 8.19743 37.21 7.8081 37.5609 7.28623L37.6361 7.31099L37.6111 8.10624C37.419 8.30505 37.1976 8.48314 36.9469 8.64052C36.6963 8.78963 36.4247 8.91803 36.1323 9.02572C35.8482 9.12513 35.5516 9.19968 35.2425 9.24938C34.9334 9.30742 34.6242 9.33644 34.3151 9.33644C33.6718 9.33644 33.0577 9.23289 32.4728 9.02579C31.888 8.81869 31.3742 8.52876 30.9314 8.15599C30.4885 7.77495 30.1376 7.31935 29.8786 6.78919C29.6196 6.25075 29.4901 5.65432 29.4901 4.9999C29.4901 4.34548 29.6196 3.7532 29.8786 3.22305C30.1376 2.68459 30.4885 2.22485 30.9314 1.8438C31.3742 1.46275 31.888 1.17282 32.4728 0.974006C33.0577 0.766909 33.6718 0.663361 34.3151 0.663361C34.6242 0.663361 34.9334 0.68821 35.2425 0.737912C35.5516 0.787613 35.8482 0.866312 36.1323 0.974006C36.4247 1.07341 36.6963 1.20181 36.9469 1.35921C37.1976 1.50831 37.419 1.68227 37.6111 1.88108L37.6612 3.1983Z" fill="white"/>
<path d="M10.0445 5.57186C9.9527 5.61322 9.86497 5.66709 9.78137 5.73346C9.69777 5.79968 9.65597 5.89081 9.65597 6.00683V7.53518C9.25493 8.10676 8.7411 8.54993 8.11448 8.86471C7.48785 9.17951 6.79439 9.3369 6.03408 9.3369C5.39075 9.3369 4.77667 9.23335 4.19181 9.02625C3.60698 8.81915 3.09315 8.52922 2.65032 8.15645C2.20751 7.77541 1.85661 7.31981 1.5976 6.78965C1.3386 6.25121 1.20911 5.65478 1.20911 5.00036C1.20911 4.34594 1.3386 3.75366 1.5976 3.22351C1.85661 2.68506 2.20751 2.22531 2.65032 1.84427C3.09315 1.46321 3.60698 1.17328 4.19181 0.974467C4.77667 0.767368 5.39075 0.663818 6.03408 0.663818C6.34322 0.663818 6.65236 0.688671 6.9615 0.738375C7.27062 0.788076 7.56722 0.866773 7.85129 0.974467C8.14371 1.07387 8.41525 1.20227 8.6659 1.35967C8.91654 1.50878 9.13796 1.68273 9.33013 1.88154L9.38034 3.19864L9.30514 3.2234C9.01272 2.59383 8.59498 2.09267 8.05191 1.7199C7.51719 1.34713 6.84461 1.16075 6.03417 1.16075C5.58301 1.16075 5.15273 1.25601 4.74335 1.44653C4.33395 1.62878 3.97468 1.88971 3.66554 2.22934C3.36476 2.5607 3.12247 2.96246 2.93868 3.43463C2.75486 3.9068 2.66295 4.42868 2.66295 5.00026C2.66295 5.56354 2.75068 6.08127 2.92614 6.55345C3.10995 7.02562 3.35225 7.43153 3.65303 7.77117C3.96215 8.10251 4.32141 8.36345 4.73081 8.55398C5.14021 8.73621 5.57466 8.82733 6.03417 8.82733C6.9031 8.82733 7.64669 8.66166 8.26496 8.33032V6.00673C8.26496 5.89081 8.21903 5.79968 8.12718 5.73336C8.04358 5.66714 7.96002 5.61327 7.87651 5.57175L7.88798 5.5097C7.9297 5.51728 8.00489 5.52553 8.11356 5.53446C8.22222 5.54204 8.33502 5.55029 8.45193 5.55922C8.57726 5.55922 8.69423 5.55922 8.80285 5.55922C8.91152 5.55922 8.99088 5.55922 9.04095 5.55922C9.09108 5.55922 9.15795 5.55922 9.24155 5.55922C9.3334 5.55922 9.42948 5.55922 9.52979 5.55922C9.63005 5.55164 9.72613 5.54339 9.81805 5.53446C9.9099 5.52688 9.98089 5.51863 10.031 5.5097L10.0445 5.57186Z" fill="white"/>
<path d="M19.1219 0.924409C19.0383 0.965778 18.9547 1.01965 18.8713 1.08602C18.7877 1.15224 18.7417 1.27649 18.7335 1.45879C18.7258 1.65759 18.7175 1.91025 18.7085 2.21676C18.7085 2.51497 18.7047 2.8546 18.697 3.23564C18.697 3.61669 18.6932 4.03088 18.6856 4.4782C18.6856 4.92553 18.6856 5.38942 18.6856 5.86988C18.6779 6.40832 18.6111 6.86806 18.485 7.24912C18.3596 7.63016 18.1925 7.94908 17.9837 8.20588C17.7832 8.46269 17.5576 8.66564 17.3069 8.81475C17.0646 8.96385 16.8223 9.07568 16.58 9.15024C16.3461 9.23312 16.1247 9.28283 15.9158 9.29934C15.7069 9.3242 15.544 9.33662 15.4271 9.33662C14.9508 9.33662 14.4913 9.27449 14.0485 9.15024C13.6057 9.03432 13.2172 8.84379 12.883 8.57865C12.5488 8.31358 12.2814 7.9698 12.0809 7.54733C11.8804 7.12487 11.7801 6.61127 11.7801 6.00655C11.7801 5.52609 11.7801 5.05806 11.7801 4.60247C11.7801 4.13857 11.7801 3.70781 11.7801 3.31019C11.7801 2.91257 11.7763 2.55638 11.7687 2.2416C11.7687 1.91853 11.7648 1.65759 11.7572 1.45879C11.7496 1.27654 11.7036 1.15228 11.6194 1.08602C11.5358 1.0198 11.4523 0.965931 11.3688 0.924409L11.3802 0.862359C11.422 0.869938 11.4888 0.878191 11.5808 0.887121C11.6811 0.8947 11.7814 0.902955 11.8816 0.911884C11.9903 0.911884 12.0947 0.915673 12.1949 0.923251C12.2952 0.923251 12.3704 0.923251 12.4205 0.923251C12.4706 0.923251 12.5458 0.923251 12.6461 0.923251C12.7464 0.915673 12.8508 0.911884 12.9594 0.911884C13.0681 0.904305 13.1683 0.89605 13.2602 0.887121C13.3604 0.879542 13.4314 0.871288 13.4731 0.862359L13.4846 0.924409C13.3928 0.965778 13.305 1.01965 13.2214 1.08602C13.1462 1.15224 13.1044 1.27649 13.096 1.45879C13.0884 1.65759 13.0801 1.91853 13.071 2.2416C13.071 2.55638 13.071 2.91257 13.071 3.31019C13.071 3.70781 13.071 4.13857 13.071 4.60247C13.071 5.05806 13.071 5.52609 13.071 6.00655C13.071 6.90949 13.2841 7.57632 13.7102 8.00707C14.1363 8.43783 14.7671 8.6532 15.6026 8.6532C15.8449 8.6532 16.1206 8.62419 16.4297 8.56615C16.7389 8.49993 17.0271 8.36739 17.2945 8.16854C17.5702 7.96973 17.8 7.68809 17.9838 7.32361C18.1759 6.95911 18.272 6.47451 18.272 5.86981C18.272 5.21539 18.2682 4.65624 18.2605 4.19236C18.2605 3.72019 18.2567 3.31842 18.2491 2.98707C18.2491 2.64744 18.2453 2.35751 18.2376 2.11727C18.23 1.87704 18.2217 1.65753 18.2126 1.45872C18.205 1.27647 18.1591 1.15221 18.0749 1.08595C17.9913 1.01973 17.9077 0.965861 17.8242 0.924339L17.8357 0.862289C17.9275 0.878798 18.032 0.895391 18.149 0.912067C18.2659 0.919646 18.3745 0.923436 18.4748 0.923436C18.5667 0.923436 18.6711 0.919646 18.7881 0.912067C18.9134 0.895559 19.0221 0.878966 19.114 0.862289L19.1219 0.924409Z" fill="white"/>
<path d="M28.2159 3.1983L28.1407 3.22306C27.8483 2.59349 27.4305 2.09232 26.8874 1.71955C26.3527 1.34679 25.6802 1.16041 24.8697 1.16041C24.4186 1.16041 23.9883 1.25566 23.5789 1.44618C23.1695 1.62843 22.8102 1.88937 22.5011 2.229C22.2003 2.56035 21.958 2.96211 21.7742 3.43429C21.5904 3.90646 21.4985 4.42833 21.4985 4.99991C21.4985 5.57149 21.5904 6.09336 21.7742 6.56554C21.958 7.03771 22.2003 7.44361 22.5011 7.78324C22.8102 8.11459 23.1695 8.37139 23.5789 8.55364C23.9883 8.73587 24.4186 8.82699 24.8697 8.82699C25.6718 8.82699 26.3235 8.70273 26.8248 8.45422C27.3344 8.19743 27.7647 7.8081 28.1156 7.28623L28.1908 7.31099L28.1658 8.10624C27.9737 8.30505 27.7523 8.48314 27.5016 8.64052C27.251 8.78963 26.9794 8.91803 26.687 9.02572C26.4029 9.12513 26.1063 9.19968 25.7972 9.24938C25.4881 9.30742 25.1789 9.33644 24.8698 9.33644C24.2265 9.33644 23.6124 9.23289 23.0275 9.02579C22.4427 8.81869 21.9288 8.52876 21.486 8.15599C21.0432 7.77495 20.6923 7.31935 20.4333 6.78919C20.1743 6.25075 20.0448 5.65432 20.0448 4.9999C20.0448 4.34548 20.1743 3.7532 20.4333 3.22305C20.6923 2.68459 21.0432 2.22485 21.486 1.8438C21.9288 1.46275 22.4427 1.17282 23.0275 0.974006C23.6124 0.766909 24.2265 0.663361 24.8698 0.663361C25.1789 0.663361 25.4881 0.68821 25.7972 0.737912C26.1063 0.787613 26.4029 0.866312 26.687 0.974006C26.9794 1.07341 27.251 1.20181 27.5016 1.35921C27.7523 1.50831 27.9737 1.68227 28.1658 1.88108L28.2159 3.1983Z" fill="white"/>
<path d="M41.4385 9.12531C41.3968 9.11773 41.3258 9.10948 41.2255 9.10054C41.1337 9.10054 41.0334 9.09676 40.9248 9.08918C40.8161 9.08918 40.7117 9.08539 40.6114 9.07781C40.5196 9.07781 40.4486 9.07781 40.3985 9.07781C40.3483 9.07781 40.2731 9.07781 40.1729 9.07781C40.0726 9.07781 39.9682 9.07781 39.8596 9.07781C39.7593 9.08539 39.6591 9.09364 39.5588 9.10257C39.4669 9.11015 39.3959 9.1184 39.3458 9.12733L39.3344 9.07755C39.418 9.03619 39.5015 8.98232 39.585 8.91595C39.6686 8.84973 39.7145 8.72547 39.7228 8.54318C39.7304 8.34437 39.7342 8.13728 39.7342 7.92191C39.7419 7.70652 39.7457 7.46214 39.7457 7.18878C39.7457 6.91542 39.7457 6.60478 39.7457 6.25686C39.7457 5.90067 39.7457 5.48235 39.7457 5.00188C39.7457 4.52142 39.7457 4.1031 39.7457 3.74691C39.7457 3.3907 39.7457 3.07592 39.7457 2.80256C39.7457 2.52919 39.7419 2.28896 39.7342 2.08186C39.7342 1.86649 39.7304 1.6594 39.7228 1.46059C39.7151 1.27834 39.6692 1.15409 39.585 1.08782C39.5014 1.01327 39.4178 0.955307 39.3344 0.91394L39.3458 0.864159C39.3959 0.880668 39.4669 0.893094 39.5588 0.901438C39.6591 0.901438 39.7593 0.905227 39.8596 0.912806C39.9682 0.920385 40.0727 0.924175 40.1729 0.924175C40.2731 0.924175 40.3483 0.924175 40.3985 0.924175C40.4486 0.924175 40.5196 0.924175 40.6114 0.924175C40.7117 0.916596 40.8161 0.912806 40.9248 0.912806C41.0334 0.905227 41.1337 0.896972 41.2255 0.888043C41.3258 0.880464 41.3968 0.87221 41.4385 0.863281L41.45 0.913057C41.3581 0.954426 41.2704 1.01239 41.1868 1.08694C41.1116 1.15316 41.0698 1.27742 41.0614 1.45971C41.0538 1.65852 41.0454 1.86561 41.0364 2.08098C41.0364 2.28808 41.0364 2.52831 41.0364 2.80167C41.0364 3.07504 41.0364 3.38982 41.0364 3.74603C41.0364 4.10222 41.0364 4.52054 41.0364 5.001C41.0364 5.48147 41.0364 5.89979 41.0364 6.25598C41.0364 6.6039 41.0364 6.91454 41.0364 7.1879C41.0364 7.46126 41.0364 7.70564 41.0364 7.92103C41.0441 8.1364 41.0524 8.34349 41.0614 8.5423C41.0691 8.72455 41.1109 8.8488 41.1868 8.91507C41.2704 8.98129 41.3581 9.03516 41.45 9.07668L41.4385 9.12531Z" fill="white"/>
</svg>
