<svg width="16" height="10" viewBox="0 0 16 10" fill="none" xmlns="http://www.w3.org/2000/svg">
<g clip-path="url(#clip0_37_890)">
<path d="M11.3905 0.303341C11.9353 0.0329198 12.2053 0.0684068 12.2114 0.342507C12.2187 0.698577 12.1666 1.17208 12.1291 1.5147C11.9268 3.37686 11.589 4.89851 11.5636 6.81048C12.4535 4.48225 13.1994 2.86406 14.1607 0.871093C14.4658 0.236046 14.6608 0.354743 14.9114 0.242164C15.8873 -0.197094 15.9236 0.0720867 15.7964 0.60925C15.3231 2.5988 14.111 8.86302 13.9258 9.82759C13.8725 10.1067 13.5723 9.98836 13.4948 9.87923C13.1473 9.39347 12.755 9.38587 12.7986 9.06285C13.0165 7.45468 13.8011 3.41982 14.0057 2.46908C12.9632 4.62895 11.8821 7.32903 11.3263 8.85998C11.2088 9.18508 10.9945 9.16123 10.8614 8.92336C10.6737 8.58922 10.3093 8.41863 10.2487 8.02378C10.0586 6.7684 10.4667 4.37555 10.5235 2.86173C9.95572 4.5154 9.00284 7.72596 8.58512 9.1765C8.4132 9.77668 7.83928 9.67878 7.99183 9.0938C8.62626 6.65948 9.99325 2.35407 10.5841 0.806236C10.7234 0.441589 11.0878 0.453824 11.3905 0.303341Z" fill="white"/>
<path d="M7.93008 0.0048026C7.74605 -0.0404601 7.2121 0.250754 6.88397 0.308252C6.77985 0.326605 6.68056 0.437943 6.64544 0.517495C6.11996 1.73741 5.64898 2.90029 5.24095 3.95966C4.71911 4.04972 4.1089 4.16829 3.42602 4.32331C3.91516 3.05531 4.40917 1.80468 4.89105 0.601902C5.12835 0.00967968 4.50361 -0.0465984 4.26144 0.552961C3.94663 1.3324 3.35699 2.79274 2.70438 4.49486C2.22492 4.61366 1.71641 4.74947 1.18487 4.90464C0.798621 5.01733 0.782901 5.12133 0.949991 5.35541C1.042 5.48574 1.2321 5.47261 1.31926 5.56548C1.54447 5.80617 1.68129 6.09407 2.08445 6.13764C1.72485 7.10976 1.36526 8.11226 1.03957 9.07754C0.834949 9.68345 1.41732 9.80739 1.64133 9.16622C2.00213 8.13267 2.38232 7.08662 2.77339 6.04365C3.09908 5.96716 3.88729 5.79561 4.61495 5.63605C4.03742 7.23576 3.65722 8.45066 3.51316 9.04203C3.48653 9.15581 3.53132 9.21895 3.55554 9.26533C3.75046 9.552 3.93571 9.56375 4.18635 9.91821C4.25417 10.0149 4.4818 10.067 4.55927 9.82901C5.09442 8.19541 5.64533 6.66263 6.15868 5.28854C6.37177 5.24144 6.75558 5.14783 6.99047 4.7936C7.40817 4.16491 7.52803 4.29242 7.62855 4.10129C7.75448 3.86135 7.67091 3.63609 7.22538 3.69175C7.22538 3.69175 7.05707 3.70385 6.7459 3.7397C7.23989 2.45434 7.67213 1.36412 7.9833 0.533324C8.0899 0.251972 8.10322 0.0464075 7.93008 0.0048026Z" fill="white"/>
<path d="M7.20133 8.34151C7.31635 8.63529 7.67595 8.54633 7.53912 8.19175C7.39987 7.83053 7.0536 6.74313 6.96278 6.39282C6.83929 5.92077 7.37444 6.04986 7.10323 6.35846C6.87078 6.62384 6.71578 6.73017 6.28597 7.23478C5.87068 7.72189 5.98329 8.354 6.42764 8.49362C6.92888 8.65121 7.37083 8.09302 7.64445 7.68349C7.90961 7.28693 7.65291 7.05433 7.38535 7.28877C7.21341 7.43951 7.01484 7.671 6.81385 7.79581C6.6504 7.89626 6.52205 7.78835 6.74 7.48515C6.99305 7.13411 7.27636 6.83997 7.48703 6.50824C7.91687 5.83221 7.0669 5.44251 6.70124 5.88164C6.50509 6.11572 6.55474 6.34552 6.60802 6.54274C6.694 6.85866 7.01364 7.86715 7.20133 8.34151Z" fill="white"/>
</g>
<defs>
<clipPath id="clip0_37_890">
<rect width="15" height="10" fill="white" transform="translate(0.849121)"/>
</clipPath>
</defs>
</svg>
