<svg width="17" height="24" viewBox="0 0 17 24" fill="none" xmlns="http://www.w3.org/2000/svg">
<path d="M16.4997 7.99996C16.5026 6.70482 16.1909 5.42835 15.5915 4.28024C14.9922 3.13213 14.123 2.1467 13.0588 1.40863C11.9945 0.670557 10.767 0.201911 9.4816 0.0429568C8.19625 -0.115997 6.89152 0.0394945 5.67952 0.496071C4.46752 0.952648 3.3845 1.69666 2.5235 2.66417C1.6625 3.63169 1.04928 4.79378 0.736521 6.05059C0.423762 7.30741 0.420819 8.62137 0.727945 9.87957C1.03507 11.1378 1.64308 12.3026 2.49974 13.274V21.5C2.49973 21.9709 2.63275 22.4323 2.88347 22.8309C3.13419 23.2296 3.49242 23.5493 3.9169 23.7533C4.34138 23.9573 4.81484 24.0372 5.28276 23.9839C5.75068 23.9306 6.19403 23.7462 6.56174 23.452L8.49974 21.9L10.4377 23.45C10.8053 23.7441 11.2485 23.9285 11.7162 23.9819C12.184 24.0353 12.6573 23.9555 13.0817 23.7518C13.5061 23.548 13.8643 23.2286 14.1152 22.8302C14.3661 22.4318 14.4994 21.9707 14.4997 21.5V13.274C15.788 11.8192 16.4994 9.9432 16.4997 7.99996ZM8.49974 1.99996C9.68642 1.99996 10.8465 2.35185 11.8332 3.01114C12.8199 3.67043 13.5889 4.6075 14.043 5.70386C14.4971 6.80021 14.616 8.00661 14.3844 9.1705C14.1529 10.3344 13.5815 11.4035 12.7424 12.2426C11.9033 13.0817 10.8342 13.6532 9.67028 13.8847C8.50639 14.1162 7.29999 13.9974 6.20364 13.5432C5.10728 13.0891 4.17021 12.3201 3.51092 11.3334C2.85163 10.3467 2.49974 9.18665 2.49974 7.99996C2.50133 6.40915 3.13398 4.88395 4.25885 3.75907C5.38372 2.6342 6.90893 2.00155 8.49974 1.99996ZM12.2167 21.948C12.1321 21.9899 12.0372 22.0065 11.9434 21.9959C11.8496 21.9852 11.7608 21.9478 11.6877 21.888L8.49974 19.337L5.31274 21.888C5.23936 21.9469 5.15086 21.9839 5.05739 21.9947C4.96393 22.0056 4.8693 21.9898 4.78438 21.9493C4.69946 21.9088 4.6277 21.8451 4.57735 21.7656C4.527 21.6861 4.5001 21.594 4.49974 21.5V14.918C5.71371 15.6265 7.09411 15.9999 8.49974 15.9999C9.90537 15.9999 11.2858 15.6265 12.4997 14.918V21.5C12.5009 21.594 12.4747 21.6863 12.4245 21.7658C12.3743 21.8453 12.3021 21.9086 12.2167 21.948Z" fill="#181818" fill-opacity="0.8"/>
</svg>
