<svg width="29" height="10" viewBox="0 0 29 10" fill="none" xmlns="http://www.w3.org/2000/svg">
<g clip-path="url(#clip0_37_888)">
<path d="M3.24694 9.9958C2.41265 9.96259 1.73008 9.73382 1.19637 9.30892C1.09451 9.22775 0.851796 8.98438 0.770367 8.88174C0.553939 8.60902 0.406796 8.3436 0.308654 8.04912C0.00665392 7.14264 0.162082 5.95314 0.753224 4.64767C1.25937 3.53003 2.04037 2.42156 3.40294 0.886323C3.60365 0.660416 4.20136 -0.000259399 4.20522 -0.000259399C4.20665 -0.000259399 4.17408 0.056288 4.13308 0.125148C3.77879 0.719828 3.47565 1.4203 3.31051 2.02672C3.04522 2.99977 3.07722 3.83482 3.40422 4.48232C3.62979 4.92841 4.01651 5.31479 4.45136 5.52839C5.21265 5.90217 6.32722 5.9331 7.68836 5.61886C7.78207 5.5971 12.4258 4.36178 18.0078 2.87365C23.5898 1.38537 28.1576 0.168668 28.1583 0.169669C28.1599 0.17096 15.1898 5.73267 8.45679 8.61804C7.3905 9.07486 7.10536 9.19024 6.60407 9.36661C5.32265 9.81756 4.17479 10.0327 3.24694 9.9958Z" fill="white"/>
</g>
<defs>
<clipPath id="clip0_37_888">
<rect width="28" height="10" fill="white" transform="translate(0.158325)"/>
</clipPath>
</defs>
</svg>
