<svg width="66" height="10" viewBox="0 0 66 10" fill="none" xmlns="http://www.w3.org/2000/svg">
<g clip-path="url(#clip0_37_886)">
<path d="M2.14373 9.99915H1.23831C1.16276 9.99915 0.973755 9.99915 0.973755 9.88606C0.973755 9.81114 1.01167 9.77297 1.12485 9.73509C1.95585 9.47074 2.14344 9.01838 2.14344 8.378V1.62284C2.14344 1.01894 1.95444 0.566299 1.12485 0.265762C1.01167 0.265762 0.973755 0.190274 0.973755 0.152672C0.973755 0.00197908 1.16276 0.0395816 1.23831 0.0395816H8.71395C10.413 0.0395816 11.8105 1.39666 11.8105 3.09556C11.8105 4.79446 10.413 6.14984 8.71395 6.14984H4.93807V8.45151C4.97599 9.05513 5.16443 9.46932 5.95667 9.73424C6.06985 9.77212 6.10748 9.81001 6.10748 9.88521C6.10748 9.9983 5.91876 9.9983 5.84321 9.9983H2.14373V9.99915ZM57.8779 6.33927H59.6525L57.8779 3.32061L57.6886 3.01866L56.1041 6.33927H57.8779ZM57.8779 0.000848176H59.0863L64.1457 8.9067C64.297 9.13288 64.4852 9.35906 64.7115 9.47215C64.9003 9.62341 65.1266 9.66158 65.3154 9.7365C65.3912 9.77467 65.4664 9.81255 65.4664 9.88776C65.4664 10.0008 65.2777 10.0008 65.2019 10.0008H60.7087C60.6335 10.0008 60.4063 10.0008 60.4063 9.88776C60.4063 9.81255 60.4821 9.77467 60.5582 9.7365C60.7846 9.66158 60.9351 9.5482 61.0109 9.32202C61.0868 9.05739 61.0109 8.90727 60.8222 8.56686C60.5659 8.02234 60.3018 7.48158 60.03 6.94459H55.8008L55.7635 7.01979C55.7253 7.17105 55.4239 7.69833 55.1976 8.2652C54.896 8.86881 54.7825 9.01951 54.858 9.32146C54.8962 9.54764 55.0844 9.66073 55.3108 9.73622C55.3869 9.77438 55.4239 9.81227 55.4239 9.88719C55.4239 10.0003 55.2346 10.0003 55.1594 10.0003H53.0823C53.007 10.0003 52.8177 10.0003 52.8177 9.88719C52.8177 9.81227 52.8559 9.7741 52.9688 9.73622C53.1581 9.66101 53.3839 9.62313 53.5729 9.47187C53.7993 9.35878 53.9886 9.1326 54.1388 8.90642L54.4034 8.34097L57.2733 2.33984L56.8573 1.62284C56.4804 1.01894 56.1024 0.641787 55.6871 0.415324C55.4983 0.302233 55.3093 0.302234 55.1212 0.226746C55.008 0.188861 54.9698 0.150975 55.008 0.0754877C55.008 0 55.0833 0.0378852 55.1212 0H57.8782L57.8779 0.000848176ZM46.5885 9.96098H46.7396C53.6878 9.96098 53.6125 0.0373198 46.7396 0.0373198H41.038C40.9248 0.0373198 40.7363 -0.00056545 40.7363 0.15041C40.7363 0.188012 40.8116 0.2635 40.8869 0.2635C41.7176 0.527566 41.9055 0.980492 41.9439 1.54679V8.45349C41.9066 9.05683 41.7176 9.4713 40.8869 9.73593C40.8116 9.7741 40.7363 9.81199 40.7363 9.88719C40.7363 10.0003 40.9251 10.0003 41.038 10.0003H44.7007V9.96211H46.5885V9.96098ZM46.5885 0.754877C47.0987 0.756886 47.5874 0.960234 47.9482 1.32064C48.3091 1.68104 48.5128 2.16931 48.515 2.67911V7.28244C48.5129 7.79226 48.3092 8.28057 47.9483 8.64099C47.5875 9.00141 47.0987 9.20474 46.5885 9.20667H44.6992V0.754877H46.5885ZM32.2011 6.33927H33.9757L32.2011 3.32061L32.0121 3.01866L30.4276 6.33927H32.2011ZM32.2011 0.000848176H33.446L38.5059 8.9067C38.6191 9.13288 38.8081 9.35906 39.0347 9.47215C39.2232 9.62341 39.4504 9.66158 39.6767 9.7365C39.752 9.77467 39.8272 9.81255 39.8272 9.88776C39.8272 10.0008 39.6009 10.0008 39.5256 10.0008H35.0339C34.9581 10.0008 34.7694 10.0008 34.7694 9.88776C34.7694 9.81255 34.8067 9.77467 34.9199 9.7365C35.1092 9.66158 35.2973 9.5482 35.3355 9.32202C35.4108 9.05739 35.3355 8.90727 35.1844 8.56686C34.9199 8.00141 34.6185 7.47272 34.3543 6.94459H30.124L30.0864 7.01979C30.0487 7.17105 29.7842 7.69833 29.5205 8.2652C29.2562 8.86881 29.1054 9.01951 29.1809 9.32146C29.2565 9.54764 29.4073 9.66073 29.6336 9.73622C29.7089 9.77438 29.7845 9.81227 29.7845 9.88719C29.7845 10.0003 29.5957 10.0003 29.4828 10.0003H27.4431C27.3676 10.0003 27.1409 10.0003 27.1409 9.88719C27.1409 9.81227 27.2165 9.7741 27.292 9.73622C27.5184 9.66101 27.7074 9.62313 27.9343 9.47187C28.1227 9.35878 28.3497 9.1326 28.4625 8.90642L28.7268 8.34097L31.6346 2.33984L31.2198 1.62284C30.8424 1.01894 30.4276 0.641787 30.0493 0.415324C29.8229 0.302233 29.6716 0.302234 29.4449 0.226746C29.3691 0.188861 29.2936 0.150975 29.3317 0.0754877C29.3699 0 29.4449 0.0378852 29.4831 0H32.2016L32.2011 0.000848176ZM19.74 6.60362C20.6086 6.905 21.666 6.98021 22.4964 6.71671L25.7819 9.54679L26.0462 9.77297C26.0606 9.78776 26.0716 9.8056 26.0782 9.82517C26.0848 9.84475 26.0869 9.86556 26.0844 9.88606C26.0844 9.99915 25.8954 9.99915 25.8196 9.99915H22.3459L19.7405 7.84846L17.6255 6.15013V8.48996C17.6637 9.05541 17.8901 9.47074 18.6829 9.73395C18.7584 9.77212 18.7961 9.80972 18.7961 9.88493C18.7961 9.99802 18.6071 9.99802 18.5312 9.99802H13.9626C13.8494 9.99802 13.6604 9.99802 13.6604 9.88493C13.6604 9.80972 13.7362 9.77184 13.8112 9.73395C14.7166 9.43257 14.8298 8.97964 14.8685 8.26378V1.73593C14.8306 1.05739 14.7174 0.566299 13.8112 0.265762C13.7356 0.265762 13.6604 0.190274 13.6604 0.152672C13.6604 0.00197908 13.8494 0.0395816 13.9626 0.0395816H21.3259C21.7258 0.0378701 22.1222 0.114902 22.4924 0.266278C22.8626 0.417655 23.1993 0.640411 23.4834 0.921826C23.7674 1.20324 23.9931 1.5378 24.1478 1.90641C24.3024 2.27502 24.3828 2.67044 24.3845 3.07012V3.09556C24.3873 3.90232 24.0695 4.67721 23.5009 5.24992C22.9322 5.82264 22.1593 6.14633 21.3519 6.14984H18.9469C19.0601 6.37602 19.3243 6.4518 19.5507 6.56517C19.6265 6.56517 19.6639 6.60362 19.7397 6.60362H19.74ZM19.74 5.43398H20.0436C21.0251 5.43398 21.8561 4.37716 21.8561 3.01866C21.8544 1.69805 21.0237 0.641787 20.0436 0.641787H17.6253V5.43398H19.74ZM7.09014 0.642069H4.93807V5.43427H7.43052C8.44912 5.43427 9.24136 4.37744 9.24136 3.01894C9.24136 1.69861 8.44912 0.642069 7.43052 0.642069H7.09014Z" fill="white"/>
</g>
<defs>
<clipPath id="clip0_37_886">
<rect width="64.4944" height="10" fill="white" transform="translate(0.973145)"/>
</clipPath>
</defs>
</svg>
