<svg width="32" height="33" viewBox="0 0 32 33" fill="none" xmlns="http://www.w3.org/2000/svg">
<path d="M25.3333 14.9259H12L16.3866 10.5392C16.5116 10.4153 16.6108 10.2678 16.6785 10.1053C16.7462 9.94286 16.781 9.76858 16.781 9.59257C16.781 9.41655 16.7462 9.24228 16.6785 9.0798C16.6108 8.91732 16.5116 8.76985 16.3866 8.6459C16.1368 8.39757 15.7989 8.25818 15.4466 8.25818C15.0944 8.25818 14.7564 8.39757 14.5066 8.6459L8.78662 14.3792C8.28584 14.877 8.00293 15.5531 7.99995 16.2592C8.00644 16.9607 8.28908 17.6314 8.78662 18.1259L14.5066 23.8592C14.6309 23.9827 14.7784 24.0804 14.9404 24.1469C15.1025 24.2133 15.2761 24.2472 15.4513 24.2466C15.6265 24.246 15.7999 24.2109 15.9615 24.1433C16.1231 24.0757 16.2698 23.9769 16.3933 23.8525C16.5167 23.7282 16.6145 23.5808 16.6809 23.4187C16.7474 23.2566 16.7813 23.083 16.7807 22.9078C16.7801 22.7326 16.745 22.5593 16.6773 22.3977C16.6097 22.236 16.5109 22.0893 16.3866 21.9659L12 17.5926H25.3333C25.6869 17.5926 26.026 17.4521 26.2761 17.202C26.5261 16.952 26.6666 16.6128 26.6666 16.2592C26.6666 15.9056 26.5261 15.5665 26.2761 15.3164C26.026 15.0664 25.6869 14.9259 25.3333 14.9259Z" fill="white"/>
</svg>
